<svg xmlns="http://www.w3.org/2000/svg" xmlns:xlink="http://www.w3.org/1999/xlink" width="67.755" height="67.755" viewBox="0 0 67.755 67.755">
  <defs>
    <clipPath id="clip-path">
      <rect id="Rectángulo_456924" data-name="Rectángulo 456924" width="67.755" height="67.755" fill="none"/>
    </clipPath>
    <clipPath id="clip-path-3">
      <rect id="Rectángulo_456918" data-name="Rectángulo 456918" width="51.479" height="51.044" fill="none"/>
    </clipPath>
    <clipPath id="clip-path-4">
      <rect id="Rectángulo_456919" data-name="Rectángulo 456919" width="21.042" height="47.674" fill="none"/>
    </clipPath>
    <clipPath id="clip-path-5">
      <rect id="Rectángulo_456920" data-name="Rectángulo 456920" width="25.892" height="23.814" fill="none"/>
    </clipPath>
    <clipPath id="clip-path-6">
      <rect id="Rectángulo_456921" data-name="Rectángulo 456921" width="19.832" height="26.339" fill="none"/>
    </clipPath>
    <clipPath id="clip-path-7">
      <rect id="Rectángulo_456922" data-name="Rectángulo 456922" width="10.782" height="25.497" fill="none"/>
    </clipPath>
  </defs>
  <g id="Grupo_1208921" data-name="Grupo 1208921" transform="translate(-202.245 -1489.156)">
    <g id="Grupo_1208920" data-name="Grupo 1208920">
      <g id="Grupo_1208783" data-name="Grupo 1208783" transform="translate(202.245 1489.156)">
        <g id="Grupo_1208800" data-name="Grupo 1208800" clip-path="url(#clip-path)">
          <g id="Grupo_1208799" data-name="Grupo 1208799">
            <g id="Grupo_1208798" data-name="Grupo 1208798" clip-path="url(#clip-path)">
              <path id="Trazado_1271764" data-name="Trazado 1271764" d="M33.876,0A33.877,33.877,0,1,0,67.755,33.877,33.878,33.878,0,0,0,33.876,0m0,61.926A28.049,28.049,0,1,1,61.925,33.878,28.047,28.047,0,0,1,33.876,61.926" fill="#fff"/>
              <path id="Trazado_1271765" data-name="Trazado 1271765" d="M64.243,38.5A25.74,25.74,0,1,1,38.5,12.764,25.742,25.742,0,0,1,64.243,38.5" transform="translate(-4.626 -4.626)" fill="#c7131b"/>
              <g id="Grupo_1208785" data-name="Grupo 1208785" transform="translate(8.138 8.574)" style="mix-blend-mode: multiply;isolation: isolate">
                <g id="Grupo_1208784" data-name="Grupo 1208784">
                  <g id="Grupo_1208783-2" data-name="Grupo 1208783" clip-path="url(#clip-path-3)">
                    <path id="Trazado_1271766" data-name="Trazado 1271766" d="M63.689,33.437c-.09.535-.2,1.067-.34,1.591a20.767,20.767,0,0,1-7.3,11.059c-5.91,4.567-16.923,3.625-22.754-.525-6.263-4.459-8.08-12.218-6.578-20.1a20.833,20.833,0,0,1,7.088-12.02,25.735,25.735,0,1,0,29.883,19.99" transform="translate(-12.764 -13.447)" fill="#d2d1d1"/>
                  </g>
                </g>
              </g>
              <g id="Grupo_1208788" data-name="Grupo 1208788" transform="translate(8.138 8.574)" style="mix-blend-mode: multiply;isolation: isolate">
                <g id="Grupo_1208787" data-name="Grupo 1208787">
                  <g id="Grupo_1208786" data-name="Grupo 1208786" clip-path="url(#clip-path-4)">
                    <path id="Trazado_1271767" data-name="Trazado 1271767" d="M17.387,42.109A25.681,25.681,0,0,1,27.989,21.3a20.94,20.94,0,0,1,5.817-7.854,25.733,25.733,0,0,0-8.026,47.674,25.661,25.661,0,0,1-8.394-19.013" transform="translate(-12.764 -13.448)" fill="#d2d1d1"/>
                  </g>
                </g>
              </g>
              <g id="Grupo_1208791" data-name="Grupo 1208791" transform="translate(27.173 13.64)" style="mix-blend-mode: soft-light;isolation: isolate">
                <g id="Grupo_1208790" data-name="Grupo 1208790">
                  <g id="Grupo_1208789" data-name="Grupo 1208789" clip-path="url(#clip-path-5)">
                    <path id="Trazado_1271768" data-name="Trazado 1271768" d="M68.509,33.3c0,6.576-5.8,11.907-12.946,11.907S42.617,39.875,42.617,33.3s5.8-11.907,12.946-11.907S68.509,26.723,68.509,33.3" transform="translate(-42.617 -21.392)" fill="#d2d1d1"/>
                  </g>
                </g>
              </g>
              <g id="Grupo_1208794" data-name="Grupo 1208794" transform="translate(25.335 22.503)" style="mix-blend-mode: multiply;isolation: isolate">
                <g id="Grupo_1208793" data-name="Grupo 1208793">
                  <g id="Grupo_1208792" data-name="Grupo 1208792" clip-path="url(#clip-path-6)">
                    <path id="Trazado_1271769" data-name="Trazado 1271769" d="M39.735,35.293V61.633l19.832-13.17Z" transform="translate(-39.735 -35.293)" fill="#a3a3a3"/>
                  </g>
                </g>
              </g>
              <path id="Trazado_1271770" data-name="Trazado 1271770" d="M41.645,30.781V57.123L61.154,43.95Z" transform="translate(-15.092 -11.155)" fill="#fff"/>
              <g id="Grupo_1208797" data-name="Grupo 1208797" transform="translate(26.553 20.47)" style="mix-blend-mode: multiply;isolation: isolate">
                <g id="Grupo_1208796" data-name="Grupo 1208796">
                  <g id="Grupo_1208795" data-name="Grupo 1208795" clip-path="url(#clip-path-7)">
                    <path id="Trazado_1271771" data-name="Trazado 1271771" d="M49.551,48.422C45.239,44.7,42.245,38.242,41.645,32.1V57.6l10.781-7.28a14.829,14.829,0,0,1-2.875-1.9" transform="translate(-41.645 -32.105)" fill="#bababa"/>
                  </g>
                </g>
              </g>
            </g>
          </g>
        </g>
      </g>
    </g>
  </g>
</svg>
